<?xml version="1.0" encoding="UTF-8"?> <svg xmlns="http://www.w3.org/2000/svg" width="250" height="326" viewBox="0 0 250 326"> <g fill="none" fill-rule="evenodd" transform="translate(-175 -17)"> <rect width="600" height="360"></rect> <g fill="#8DDCFF" transform="translate(175 17)"> <path d="M61.267134,139.855089 C63.0630841,139.855089 64.5249221,141.314698 64.5249221,143.109643 L64.5249221,146.105108 C64.5249221,147.899275 63.0630841,149.358884 61.267134,149.358884 L37.2725857,149.358884 C35.4758567,149.358884 34.0147975,147.899275 34.0147975,146.105108 L34.0147975,143.109643 C34.0147975,141.314698 35.4758567,139.855089 37.2725857,139.855089 L61.267134,139.855089 Z M246.758567,309.453672 L3.1152648,309.453672 L3.1152648,66.0514902 L102.750779,66.0514902 L80.0264798,88.7532277 C79.4182243,89.3616573 79.4182243,90.3466597 80.0264798,90.9543112 L99.3917445,110.299571 L62.4314642,110.299571 C53.8816199,110.299571 46.9260125,117.248273 46.9260125,125.788851 L46.9260125,136.742917 L37.2725857,136.742917 C33.758567,136.742917 30.8995327,139.599113 30.8995327,143.109643 L30.8995327,146.105108 C30.8995327,149.61486 33.758567,152.471056 37.2725857,152.471056 L61.267134,152.471056 C64.7811526,152.471056 67.6401869,149.61486 67.6401869,146.105108 L67.6401869,143.109643 C67.6401869,139.599113 64.7811526,136.742917 61.267134,136.742917 L50.0412773,136.742917 L50.0412773,125.788851 C50.0412773,118.963858 55.5996885,113.411743 62.4314642,113.411743 L102.507009,113.411743 L102.61215,113.517557 L102.718069,113.411743 L186.418224,113.411743 C193.25,113.411743 198.807632,118.963858 198.807632,125.788851 L198.807632,249.65329 C198.807632,256.477505 193.25,262.030397 186.418224,262.030397 L62.4314642,262.030397 C55.5996885,262.030397 50.0412773,256.477505 50.0412773,249.65329 C50.0412773,248.793552 49.3442368,248.097204 48.4836449,248.097204 C47.6238318,248.097204 46.9260125,248.793552 46.9260125,249.65329 C46.9260125,258.193867 53.8816199,265.142569 62.4314642,265.142569 L186.418224,265.142569 C194.96729,265.142569 201.922897,258.193867 201.922897,249.65329 L201.922897,125.788851 C201.922897,117.248273 194.96729,110.299571 186.418224,110.299571 L136.562305,110.299571 C128.665888,108.429934 121.449377,104.405896 115.678349,98.6413757 C108.070872,91.040674 103.55919,80.9961394 102.908879,70.2949365 L149.404984,23.8449938 C160.117601,24.4938816 170.17134,29.0018625 177.779595,36.6025642 C185.377726,44.1931513 189.901869,54.2470224 190.552181,64.9443351 L182.820872,72.6687456 L153.813863,101.646956 C153.205607,102.254607 153.205607,103.23961 153.813863,103.847261 C154.117601,104.151476 154.516355,104.303194 154.915109,104.303194 C155.313863,104.303194 155.712617,104.151476 156.016355,103.847261 L185.023364,74.8690511 L193.849688,66.0514902 L246.758567,66.0514902 L246.758567,309.453672 Z M103.796729,110.299571 L83.3309969,89.8541585 L100.040498,73.1604687 C101.275701,83.6119198 105.966511,93.3390129 113.475857,100.841681 C117.437695,104.798808 122.035826,107.989562 127.054517,110.299571 L103.796729,110.299571 Z M168.983645,4.28577184 L210.126947,45.3890033 L193.417445,62.0826931 C192.180685,51.63202 187.483645,41.8955905 179.982087,34.4014807 C172.472741,26.8995905 162.735981,22.2134377 152.273364,20.9794616 L168.983645,4.28577184 Z M248.316199,62.9393184 L196.964953,62.9393184 L213.431464,46.4899341 C213.72352,46.198168 213.88785,45.8021442 213.88785,45.3890033 C213.88785,44.9766406 213.72352,44.5806167 213.431464,44.2888506 L170.084891,0.985313604 C169.476636,0.377662053 168.489875,0.377662053 167.882399,0.985313604 L105.866044,62.9393184 L1.5576324,62.9393184 C0.697819315,62.9393184 0,63.6364449 0,64.4954043 L0,311.009758 C0,311.868717 0.697819315,312.565843 1.5576324,312.565843 L56.0981308,312.565843 C56.2071651,312.589963 56.3208723,312.605524 56.4376947,312.605524 L63.9680685,312.605524 L63.9680685,322.110096 L17.4968847,322.110096 C16.6370717,322.110096 15.9392523,322.806445 15.9392523,323.666182 C15.9392523,324.525142 16.6370717,325.222268 17.4968847,325.222268 L65.5257009,325.222268 C66.3862928,325.222268 67.0833333,324.525142 67.0833333,323.666182 L67.0833333,312.565843 L213.227414,312.565843 C213.336449,312.589963 213.450156,312.605524 213.566978,312.605524 L228.885514,312.605524 L228.885514,322.110096 L182.41433,322.110096 C181.554517,322.110096 180.856698,322.806445 180.856698,323.666182 C180.856698,324.525142 181.554517,325.222268 182.41433,325.222268 L230.443146,325.222268 C231.303738,325.222268 232.000779,324.525142 232.000779,323.666182 L232.000779,312.565843 L248.316199,312.565843 C249.176791,312.565843 249.873832,311.868717 249.873832,311.009758 L249.873832,64.4954043 C249.873832,63.6364449 249.176791,62.9393184 248.316199,62.9393184 Z"></path> <path d="M34.0146417 233.824706L34.0146417 230.829241C34.0146417 229.035074 35.4757009 227.575465 37.2724299 227.575465L61.2669782 227.575465C63.0629283 227.575465 64.5247664 229.035074 64.5247664 230.829241L64.5247664 233.824706C64.5247664 235.619651 63.0629283 237.07926 61.2669782 237.07926L37.2724299 237.07926C35.4757009 237.07926 34.0146417 235.619651 34.0146417 233.824706M67.6400312 233.824706L67.6400312 230.829241C67.6400312 227.319489 64.7809969 224.463293 61.2669782 224.463293L50.5543614 224.463293 50.5543614 166.475751C50.5543614 165.616792 49.8565421 164.919665 48.996729 164.919665 48.1361371 164.919665 47.4390966 165.616792 47.4390966 166.475751L47.4390966 224.463293 37.2724299 224.463293C33.7584112 224.463293 30.8993769 227.319489 30.8993769 230.829241L30.8993769 233.824706C30.8993769 237.335236 33.7584112 240.191432 37.2724299 240.191432L61.2669782 240.191432C64.7809969 240.191432 67.6400312 237.335236 67.6400312 233.824706M91.3386293 156.753638L101.517757 166.922659C101.822274 167.226096 102.221028 167.378592 102.619003 167.378592 103.017757 167.378592 103.416511 167.226096 103.720249 166.922659 104.329283 166.315008 104.329283 165.329227 103.720249 164.722354L93.5450156 154.557222C101.846417 146.836702 112.355763 142.809552 122.968692 142.471881L122.968692 156.757528C122.968692 157.616487 123.665732 158.313614 124.526324 158.313614 125.386916 158.313614 126.083956 157.616487 126.083956 156.757528L126.083956 142.476549C136.671963 142.860125 147.143925 146.921509 155.407944 154.656034L145.33162 164.722354C144.723364 165.329227 144.723364 166.315008 145.33162 166.922659 145.636137 167.226096 146.034112 167.378592 146.432866 167.378592 146.83162 167.378592 147.230374 167.226096 147.534891 166.922659L157.609657 156.857117C165.104206 164.886521 169.365109 175.177695 169.736604 186.151213L155.507632 186.151213C154.64704 186.151213 153.95 186.848339 153.95 187.707299 153.95 188.567036 154.64704 189.263385 155.507632 189.263385L169.737383 189.263385C169.37134 200.241571 165.115888 210.537413 157.622897 218.570707L147.534891 208.492716C146.926636 207.885065 145.939875 207.885065 145.33162 208.492716 144.723364 209.100368 144.723364 210.08537 145.33162 210.693022L155.422741 220.774125C147.392368 228.302468 137.083178 232.593375 126.083956 232.985509L126.083956 218.657848C126.083956 217.798888 125.386916 217.101762 124.526324 217.101762 123.665732 217.101762 122.968692 217.798888 122.968692 218.657848L122.968692 232.990955C111.940654 232.645504 101.595639 228.386497 93.5302181 220.873714L103.720249 210.693022C104.329283 210.08537 104.329283 209.100368 103.720249 208.492716 103.112773 207.885065 102.126791 207.885065 101.517757 208.492716L91.3253894 218.674965C83.7716511 210.62611 79.4788162 200.289032 79.1119938 189.263385L93.5450156 189.263385C94.4056075 189.263385 95.102648 188.567036 95.102648 187.707299 95.102648 186.848339 94.4056075 186.151213 93.5450156 186.151213L79.1127726 186.151213C79.4858255 175.130234 83.7833333 164.797824 91.3386293 156.753638M124.424299 236.138139C137.369782 236.138139 149.541121 231.102645 158.694548 221.957528 167.848754 212.812411 172.890031 200.653934 172.890031 187.721304 172.890031 174.788674 167.848754 162.629418 158.694548 153.484301 139.798131 134.606645 109.051246 134.606645 90.1540498 153.484301 81.0006231 162.629418 75.9593458 174.788674 75.9593458 187.721304 75.9593458 200.653934 81.0006231 212.812411 90.1540498 221.957528 99.3082555 231.102645 111.478816 236.138139 124.424299 236.138139M151.176636 66.8759823L149.854206 65.5548654 157.083178 58.3330706 157.808255 59.0574286C159.814486 61.0616673 159.814486 64.3240014 157.808255 66.3282401 156.005296 68.1294095 153.185981 68.3122496 151.176636 66.8759823zM149.105763 78.334221C146.587072 80.8504119 142.48972 80.8504119 139.971028 78.334221L138.516978 76.8816148 147.602648 67.8049656 148.327726 68.5293236C148.583956 68.7852998 148.854206 69.0218248 149.133801 69.2373427 151.623676 71.7550897 151.61433 75.8281446 149.105763 78.334221zM131.928193 70.2993714L141.013863 61.2227222 145.399377 65.6038821 136.313707 74.6805313 131.928193 70.2993714zM150.495171 51.7516053L154.880685 56.1327652 147.651713 63.3545599 143.266199 58.9734 150.495171 51.7516053zM153.678972 70.9280301C155.955452 71.0618535 158.276324 70.2620253 160.010748 68.5293236 163.231931 65.3105599 163.231931 60.0751088 160.010748 56.8571232L159.286449 56.1327652 161.157944 54.2623499C161.766978 53.6546983 161.766978 52.6689179 161.157944 52.0612663 160.550467 51.4536148 159.564486 51.4536148 158.955452 52.0612663L157.083178 53.9316816 151.596417 48.450369C151.012305 47.8668368 149.977259 47.8668368 149.393146 48.450369L139.919626 57.9144835C139.91729 57.9175957 139.914953 57.9199298 139.912617 57.922264L139.905607 57.9284883 128.623676 69.1992186C128.016199 69.8068702 128.016199 70.7918726 128.623676 71.3995241L134.111215 76.8816148 131.317601 79.6724549C130.709346 80.2801064 130.709346 81.2651088 131.317601 81.8727604 131.622118 82.1769752 132.020093 82.3286936 132.418847 82.3286936 132.817601 82.3286936 133.215576 82.1769752 133.520093 81.8727604L136.313707 79.0819203 137.768536 80.5353045C139.634579 82.3994955 142.086293 83.3315909 144.538785 83.3315909 146.990498 83.3315909 149.442212 82.3994955 151.308255 80.5353045 153.906386 77.9397532 154.696885 74.2121494 153.678972 70.9280301z"></path> </g> </g> </svg> 