<?xml version="1.0" encoding="UTF-8"?> <svg xmlns="http://www.w3.org/2000/svg" width="75" height="53" viewBox="0 0 75 53"> <g fill="none" fill-rule="evenodd" transform="translate(0 -11)"> <rect width="75" height="75"></rect> <g fill="#8DDCFF" transform="translate(.5 11)"> <path d="M47.1619718,30.5 C47.1619718,28.241 47.9280282,26.148 49.3204789,24.607 C50.8619718,22.901 53.0882254,22 55.7605634,22 L70.8732394,22 L70.8732394,39 L55.7605634,39 C49.8530704,39 47.1619718,34.594 47.1619718,30.5 M68.2676056,8 L5.73239437,8 C4.75892958,8 3.89073239,8.208 3.12676056,8.562 L3.12676056,5.88 C3.12676056,4.876 3.89073239,3 5.73239437,3 L58.8873239,3 C59.7503099,3 60.4507042,2.328 60.4507042,1.5 C60.4507042,0.672 59.7503099,0 58.8873239,0 L5.73239437,0 C2.19185915,0 0,3.052 0,5.88 L0,13.88 L0,14.5 L0,16 L0,19.5 L0,47.88 C0,50.638 3.15177465,53 5.73239437,53 L68.2676056,53 C68.3363944,53 68.4062254,52.995 68.4750141,52.986 C71.336,52.618 73.6018592,50.444 73.9854085,47.699 C74.1010986,46.878 73.5007606,46.123 72.6440282,46.014 C71.7935493,45.896 71.0014366,46.479 70.887831,47.301 C70.6939718,48.679 69.5766761,49.777 68.1529577,50 L5.73239437,50 C4.63594366,50 3.12676056,48.771 3.12676056,47.88 L3.12676056,19.5 L3.12676056,16 L3.12676056,14.5 L3.12676056,13.88 C3.12676056,12.805 3.46549296,11 5.73239437,11 L68.2676056,11 C69.1420563,11 70.8732394,12.75 70.8732394,13.88 L70.8732394,19 L55.7605634,19 C52.1543662,19 49.1099437,20.26 46.9576901,22.643 C45.0732958,24.729 44.0352113,27.52 44.0352113,30.5 C44.0352113,36.215 48.0624789,42 55.7605634,42 L72.4366197,42 C73.2996056,42 74,41.328 74,40.5 L74,40.189 L74,20.5 L74,13.88 C74,11.367 71.1661127,8 68.2676056,8"></path> <path d="M57.251172,31.7979464 C56.9021876,31.9969498 56.4952059,32.0509507 56.113223,31.9469489 C55.7272403,31.8439472 55.4022549,31.5959431 55.2022638,31.2479373 C54.7892824,30.5319253 55.0352713,29.6119099 55.7512392,29.198903 C55.9862287,29.0639007 56.2442171,28.9988996 56.4992057,28.9988996 C57.0181824,28.9988996 57.5231598,29.2679041 57.8011473,29.7479122 C58.2141288,30.4639241 57.9671399,31.3839395 57.251172,31.7979464 M54.2513065,26.6018596 C53.2103532,27.2018696 52.4663865,28.1728858 52.1544005,29.3339052 C51.8444144,30.4949247 52.0044072,31.7069449 52.6053803,32.7479623 C53.2053534,33.7889797 54.1753099,34.5339922 55.3372578,34.8449974 C55.7252404,34.9489991 56.1172228,35 56.5092053,35 C57.2881703,35 58.0581358,34.7959966 58.7511047,34.3959899 C60.8990084,33.1549691 61.6389753,30.397923 60.3980309,28.2468871 C59.1560866,26.1018512 56.4002101,25.3608388 54.2513065,26.6018596"></path> </g> </g> </svg> 