<?xml version="1.0" encoding="UTF-8"?> <svg xmlns="http://www.w3.org/2000/svg" width="314" height="287" viewBox="0 0 314 287"> <g fill="none" fill-rule="evenodd" transform="translate(-143 -37)"> <rect width="600" height="360"></rect> <g fill="#8DDCFF" transform="translate(143 37)"> <path d="M96.1089109,236.239353 L96.1089109,213.552561 C96.1089109,212.694771 95.4125149,212 94.5544554,212 C93.696396,212 93,212.694771 93,213.552561 L93,236.239353 C93,237.096367 93.696396,237.791914 94.5544554,237.791914 C95.4125149,237.791914 96.1089109,237.096367 96.1089109,236.239353"></path> <path d="M91.4410725,257.729725 C81.0883992,257.729725 72.572315,249.75034 71.7741022,239.647051 L225.159993,239.647051 C225.683845,247.382685 230.087617,254.073445 236.438345,257.78717 L91.4410725,257.729725 Z M90.821622,158.064647 C90.8200675,158.067752 90.8185131,158.071633 90.8169586,158.074739 C90.8146269,158.077844 90.8122952,158.080173 90.8099636,158.084054 C88.2241269,162.605111 83.5879636,165.61242 78.4069636,166.127871 C74.1244388,166.552496 69.9328497,165.287935 66.6032061,162.563968 C63.2743398,159.840776 61.2061368,155.984992 60.780216,151.708464 C60.353518,147.431159 61.6211764,143.244679 64.3476913,139.919094 C67.0742061,136.594286 70.9346962,134.527827 75.2164438,134.102426 C82.6397457,133.36496 89.7443843,137.934922 92.1102655,144.968798 C92.1164834,144.987429 92.1273645,145.004507 92.1351368,145.023137 C92.1421319,145.041768 92.1444636,145.061175 92.1522358,145.079806 C92.4553546,145.793208 92.8175428,146.488755 93.2310279,147.145488 C93.2838794,147.229326 93.3499438,147.297639 93.4144537,147.367504 L93.4144537,154.853951 C92.408721,155.790146 91.5304537,156.865294 90.821622,158.064647 Z M79.1352259,104.669757 L86.4979041,85.4467278 L87.5036368,84.442221 C89.1257111,82.822124 91.1876962,81.7361078 93.4144537,81.2866415 L93.4144537,107.579256 C88.8816616,105.867558 84.053523,104.887116 79.1352259,104.669757 Z M72.302617,104.85296 C68.2361616,105.256625 64.3515774,106.194372 60.6993843,107.575375 L60.6993843,79.2178544 L63.5471467,71.7834178 C64.6546962,68.8909973 66.8239388,66.6032992 69.6546022,65.3402911 C72.4852655,64.077283 75.6392556,63.9911159 78.5352061,65.0973154 C81.4311566,66.2035148 83.7216467,68.3701132 84.9861962,71.1973261 C86.2507457,74.0253154 86.337018,77.1754609 85.2294685,80.0671051 L83.7239784,83.9981887 C83.7232012,83.998965 83.7232012,83.998965 83.7232012,83.9997412 L75.8187952,104.638706 C74.6482903,104.668981 73.4754537,104.736518 72.302617,104.85296 Z M34.3762358,133.655288 L34.3762358,74.4250997 C34.3762358,68.0324313 39.5828843,62.8321294 45.9833546,62.8321294 C52.3838249,62.8321294 57.5904735,68.0324313 57.5904735,74.4250997 L57.5904735,108.888065 C46.9168051,113.864022 38.6129041,122.812981 34.3762358,133.655288 Z M290.489869,0 L116.243964,0 C103.655206,0 93.4144537,10.2290458 93.4144537,22.8024582 L93.4144537,78.125628 C91.7146566,78.3934447 90.0832556,78.9593531 88.5894239,79.7853154 C89.4863447,76.5163989 89.2275279,73.0673854 87.8246319,69.9312129 C86.2219883,66.3463504 83.3174883,63.5998706 79.6458645,62.1971321 C75.9742408,60.7943935 71.9761814,60.9038491 68.3869438,62.5045391 C64.7977061,64.1060054 62.0478744,67.006965 60.6434239,70.6741132 L60.3760576,71.3727655 C58.9646121,64.7285822 53.0499091,59.7270081 45.9833546,59.7270081 C37.8690972,59.7270081 31.2673249,66.3199569 31.2673249,74.4250997 L31.2673249,150.109326 C31.2673249,150.127957 31.2719883,150.145035 31.2727655,150.162889 C31.2750972,151.63627 31.3450477,153.122846 31.4942754,154.618739 C32.3663249,163.369747 35.6913051,171.557951 41.1334537,178.391547 L0.447914047,219.56235 C-0.155214666,220.172507 -0.148219616,221.155278 0.462681374,221.758447 C0.765022958,222.056539 1.15985464,222.205585 1.55468632,222.205585 C1.95573583,222.205585 2.35678533,222.051881 2.66068137,221.743698 L44.329414,179.57848 C44.8944586,179.005585 44.9294338,178.097337 44.4086913,177.483299 C38.8406319,170.919073 35.4441467,162.907084 34.588419,154.311332 C32.2715032,131.057078 49.3277655,110.256647 72.6103992,107.942555 C79.777216,107.22993 86.9494735,108.273251 93.4144537,110.928906 L93.4144537,140.429111 C89.6759883,134.105531 82.4361121,130.265272 74.9086616,131.01283 C69.7999438,131.520518 65.1948695,133.984431 61.9421715,137.952 C58.6894735,141.918792 57.1785428,146.91338 57.6860725,152.015871 C58.1951566,157.118361 60.6620774,161.717046 64.6337111,164.965779 C68.1017012,167.803084 72.3531368,169.313725 76.7763398,169.313725 C77.4191071,169.313725 78.0665378,169.281898 78.7147457,169.217466 C84.8851566,168.604205 90.4073596,165.027881 93.4945081,159.649035 C93.4960626,159.646706 93.497617,159.645154 93.4983942,159.643601 C95.3614091,156.492679 98.6949388,154.391288 102.415528,154.021779 C105.500345,153.715148 108.520652,154.626501 110.919176,156.588162 C113.316924,158.550598 114.806869,161.327353 115.113874,164.409186 C115.46285,167.907881 114.039746,170.794092 112.7853,172.598943 C112.779082,172.609035 112.775196,172.619127 112.768978,172.629218 C112.761983,172.63931 112.753434,172.646296 112.747216,172.656388 C111.198201,175.11021 109.398142,177.39558 107.385899,179.485326 C107.298072,179.542771 107.214909,179.609531 107.138741,179.686383 L3.08116157,284.110059 C2.47570118,284.717887 2.47803286,285.701434 3.08660217,286.306156 C3.38972098,286.607353 3.78688434,286.757951 4.18327048,286.757951 C4.58276553,286.757951 4.98148335,286.605801 5.28460217,286.300722 L107.75586,183.46842 C110.665023,180.774728 113.216662,177.718512 115.336162,174.374296 C115.336939,174.372744 115.338493,174.371191 115.33927,174.370415 C115.343934,174.363429 115.34782,174.356442 115.352483,174.349456 C115.360256,174.337035 115.369582,174.325391 115.376577,174.31297 C115.378909,174.309865 115.380464,174.305984 115.382018,174.302102 C117.576132,171.116248 118.555439,167.591159 118.207241,164.101003 C117.818627,160.19476 115.929186,156.673553 112.888671,154.18635 C109.848157,151.699148 106.018756,150.542491 102.107746,150.931407 C100.125038,151.128582 98.2309338,151.720884 96.5233645,152.634566 L96.5233645,22.8024582 C96.5233645,11.9407439 105.36977,3.10512129 116.243964,3.10512129 L279.009439,3.10512129 C272.228127,7.06259838 267.659582,14.4077628 267.659582,22.8024582 L267.659582,238.094491 C267.659582,248.955429 258.812399,257.791827 247.938983,257.791827 L247.922662,257.791827 C237.055464,257.782512 228.21683,248.949995 228.21683,238.094491 C228.21683,237.236701 227.520434,236.54193 226.662374,236.54193 L70.1139438,236.54193 C69.2551071,236.54193 68.5594883,237.236701 68.5594883,238.094491 C68.5594883,238.227235 68.5758101,238.356097 68.6076764,238.479526 C68.814419,250.841013 78.9774487,260.834846 91.4402952,260.834846 L247.937429,260.896949 L247.938206,260.896949 C260.526964,260.896949 270.768493,250.667903 270.768493,238.094491 L270.768493,22.8024582 C270.768493,11.9407439 279.614899,3.10512129 290.489869,3.10512129 C300.840988,3.10512129 309.355518,11.1116765 310.149845,21.2498976 L283.331602,21.2498976 C282.473543,21.2498976 281.777147,21.9446685 281.777147,22.8024582 C281.777147,23.6594717 282.473543,24.3550189 283.331602,24.3550189 L311.765701,24.3550189 C312.623761,24.3550189 313.320157,23.6594717 313.320157,22.8024582 C313.320157,10.2290458 303.07785,0 290.489869,0 Z"></path> <path d="M123.554455 36.1051213L237.465728 36.1051213C238.324564 36.1051213 239.020183 35.4103504 239.020183 34.5525606 239.020183 33.6955472 238.324564 33 237.465728 33L123.554455 33C122.696396 33 122 33.6955472 122 34.5525606 122 35.4103504 122.696396 36.1051213 123.554455 36.1051213M123.554455 60.1051213L237.465728 60.1051213C238.324564 60.1051213 239.020183 59.4095741 239.020183 58.5525606 239.020183 57.6955472 238.324564 57 237.465728 57L123.554455 57C122.696396 57 122 57.6955472 122 58.5525606 122 59.4095741 122.696396 60.1051213 123.554455 60.1051213M123.554455 82.1051213L237.465728 82.1051213C238.324564 82.1051213 239.020183 81.4095741 239.020183 80.5525606 239.020183 79.6955472 238.324564 79 237.465728 79L123.554455 79C122.696396 79 122 79.6955472 122 80.5525606 122 81.4095741 122.696396 82.1051213 123.554455 82.1051213M123.554455 105.105121L237.465728 105.105121C238.324564 105.105121 239.020183 104.41035 239.020183 103.552561 239.020183 102.695547 238.324564 102 237.465728 102L123.554455 102C122.696396 102 122 102.695547 122 103.552561 122 104.41035 122.696396 105.105121 123.554455 105.105121M123.554455 128.105121L185.609094 128.105121C186.467931 128.105121 187.16355 127.409574 187.16355 126.552561 187.16355 125.695547 186.467931 125 185.609094 125L123.554455 125C122.696396 125 122 125.695547 122 126.552561 122 127.409574 122.696396 128.105121 123.554455 128.105121M201.045666 195.098933C201.349562 195.401682 201.746725 195.553057 202.145443 195.553057 202.542606 195.553057 202.940547 195.401682 203.244443 195.098933L217.710205 180.650027C218.31722 180.043752 218.31722 179.060981 217.710205 178.454706 217.103191 177.848431 216.11922 177.848431 215.512205 178.454706L202.145443 191.805175 197.653844 187.319827C197.046829 186.713553 196.062082 186.713553 195.455844 187.319827 194.848052 187.926102 194.848052 188.908873 195.455844 189.515148L201.045666 195.098933z"></path> <path d="M187.108911,207.693391 L224.743054,207.693391 L224.743054,170.105121 L187.108911,170.105121 L187.108911,207.693391 Z M185.554455,167 C184.695619,167 184,167.695547 184,168.552561 L184,209.245951 C184,210.103741 184.695619,210.798512 185.554455,210.798512 L226.29751,210.798512 C227.156347,210.798512 227.851965,210.103741 227.851965,209.245951 L227.851965,168.552561 C227.851965,167.695547 227.156347,167 226.29751,167 L185.554455,167 Z"></path> </g> </g> </svg> 