<?xml version="1.0" encoding="UTF-8"?> <svg xmlns="http://www.w3.org/2000/svg" xmlns:xlink="http://www.w3.org/1999/xlink" width="84px" height="72px" viewBox="0 0 84 72"> <!-- Generator: Sketch 49.2 (51160) - http://www.bohemiancoding.com/sketch --> <title>noun_1614248_cc</title> <desc>Created with Sketch.</desc> <defs></defs> <g id="Final-screens" stroke="none" stroke-width="1" fill="none" fill-rule="evenodd"> <g id="noun_1614248_cc" transform="translate(0.000000, -1.000000)" fill="#000000" fill-rule="nonzero"> <g id="Group" transform="translate(0.000000, 0.637820)"> <path d="M8,0.36218 C3.6026,0.36218 0,3.96478 0,8.36218 L0,65.3622 C0,69.2056 3.1566,72.3622 7,72.3622 L77,72.3622 C80.8434,72.3622 84,69.2056 84,65.3622 L84,19.36218 C84,15.51878 80.8434,12.36218 77,12.36218 L72,12.36218 L72,2.36218 C71.9999,1.31498 71.0472,0.36228 70,0.36218 L8,0.36218 Z M8,4.36218 L68,4.36218 L68,12.36218 L8,12.36218 C5.7494,12.36218 4,10.61278 4,8.36218 C4,6.11158 5.7494,4.36218 8,4.36218 Z M4,15.26838 C5.1789,15.95498 6.5456,16.36218 8,16.36218 C30.5241,16.34218 57.6406,16.36218 77,16.36218 C78.6966,16.36218 80,17.66558 80,19.36218 L80,29.36218 L51,29.36218 C48.2646,29.36218 46,31.62678 46,34.3622 L46,50.3622 C46,53.0976 48.2646,55.3622 51,55.3622 L80,55.3622 L80,65.3622 C80,67.0588 78.6966,68.3622 77,68.3622 L7,68.3622 C5.3034,68.3622 4,67.0588 4,65.3622 L4,15.26838 Z M51,33.36218 L80,33.36218 L80,51.3622 L51,51.3622 C50.4114,51.3622 50,50.9508 50,50.3622 L50,34.3622 C50,33.77358 50.4114,33.36218 51,33.36218 Z M61,37.331 C58.2623,37.331 56,39.5932 56,42.331 C56,45.0687 58.2623,47.331 61,47.331 C63.7377,47.331 66,45.0687 66,42.331 C66,39.5932 63.7377,37.331 61,37.331 Z M61,41.331 C61.576,41.331 62,41.755 62,42.331 C62,42.9069 61.576,43.331 61,43.331 C60.424,43.331 60,42.9069 60,42.331 C60,41.755 60.424,41.331 61,41.331 Z" id="Shape"></path> </g> </g> </g> </svg> 