<?xml version="1.0" encoding="UTF-8"?> <svg xmlns="http://www.w3.org/2000/svg" width="375" height="263" viewBox="0 0 375 263"> <g fill="none" fill-rule="evenodd" transform="translate(-113 -49)"> <rect width="600" height="360"></rect> <g fill="#8DDCFF" transform="translate(113 49)"> <path d="M289.056056,127.388407 L268.615062,106.903197 C268.615062,106.902419 268.615062,106.902419 268.614286,106.902419 C268.614286,106.901641 268.614286,106.901641 268.613509,106.901641 L258.32236,96.5870612 C258.32236,96.5870612 258.321584,96.5870612 258.321584,96.5862831 C258.321584,96.5862831 258.321584,96.5862831 258.321584,96.5862831 L248.268012,86.510582 L295.441925,39.2336086 L330.06382,4.53472692 L370.851863,45.4125524 L296.612733,119.815875 L289.056056,127.388407 Z M155.052174,239.111274 C152.179503,238.614842 149.254814,238.347174 146.302174,238.347174 C146.012578,238.347174 145.726087,238.356511 145.437267,238.36118 C145.038199,236.850875 144.594099,235.359245 144.104193,233.887845 L267.51646,110.203147 L275.613509,118.31802 L155.052174,239.111274 Z M208.844099,205.761629 C208.878261,206.754493 208.895342,207.762141 208.895342,208.756561 C208.895342,211.220825 208.78354,213.704541 208.573913,216.153242 C196.608075,225.544987 187.548292,238.593055 183.159317,253.84083 C176.406211,246.969372 167.902329,242.16612 158.68028,239.877709 L207.112733,191.352653 C208.09177,196.078872 208.676398,200.913248 208.844099,205.761629 Z M323.462888,259.598819 L187.268012,259.598819 L184.910093,259.598819 C188.49472,242.730248 197.943478,228.316603 210.857298,218.317156 C210.962112,218.254907 211.057609,218.179431 211.144565,218.093839 C223.159317,208.888061 238.132919,203.485668 254.186491,203.485668 C287.691925,203.485668 316.529658,226.972035 323.462888,259.598819 Z M105.337112,259.598819 L3.14301242,259.598819 C3.1181677,258.827715 3.10574534,258.06128 3.10574534,257.305739 C3.10574534,230.868014 17.601087,207.762919 39.0420807,195.544313 C39.4395963,195.491401 39.7975155,195.289094 40.0451863,194.981742 C50.1197205,189.455629 61.6725155,186.310523 73.9450311,186.310523 C113.006366,186.310523 144.784317,218.158422 144.784317,257.305739 C144.784317,258.059724 144.771894,258.826159 144.74705,259.598819 L105.337112,259.598819 Z M69.036646,143.951961 C84.3518634,130.88833 103.878261,123.69318 124.019565,123.69318 C151.543634,123.69318 177.342547,137.091396 193.270342,159.579452 L135.970652,217.005268 C122.772671,196.672567 99.9007764,183.198097 73.9450311,183.198097 C62.1181677,183.198097 50.9333851,185.99928 41.009472,190.968268 C44.888354,172.732564 54.7509317,156.137887 69.036646,143.951961 Z M182.231522,257.371878 C182.058385,258.107967 181.907764,258.853393 181.75559,259.598819 L147.850311,259.598819 C147.874379,258.826937 147.889907,258.059724 147.889907,257.305739 C147.889907,251.86833 147.297516,246.568647 146.182609,241.461934 C146.222981,241.461934 146.262578,241.4596 146.302174,241.4596 C159.944255,241.4596 173.026553,247.258828 182.231522,257.371878 Z M265.320807,108.002662 L142.940373,230.652478 C141.472205,226.848316 139.698913,223.195106 137.651553,219.723194 L257.223758,99.8877891 L265.320807,108.002662 Z M371.49472,41.6558541 L333.812267,3.89045473 L371.49472,3.89045473 L371.49472,41.6558541 Z M374.131366,1.22621805 C373.840994,0.939096746 373.448913,0.778028698 373.040528,0.778028698 L330.06382,0.778028698 C330.058385,0.778028698 330.053727,0.779584911 330.048292,0.779584911 C329.952795,0.780363018 329.857298,0.788922189 329.763354,0.807596746 C329.730745,0.814599704 329.699689,0.827827515 329.667857,0.83560858 C329.601863,0.85350503 329.536646,0.86906716 329.472981,0.895522781 C329.438043,0.910306805 329.406211,0.93131568 329.37205,0.948434024 C329.315373,0.977223964 329.257919,1.00212337 329.205124,1.03791627 C329.11972,1.09471805 329.039752,1.16007899 328.965994,1.23399911 L293.245497,37.0323453 L284.370497,45.9276589 C267.416304,41.6932033 249.080901,46.6209518 236.332453,58.9018068 C236.031988,59.1912624 235.860404,59.5904311 235.856522,60.0082743 C235.851863,60.4261175 236.015683,60.8283985 236.310714,61.124079 L245.831677,70.6659991 C246.134472,70.9694607 246.531988,71.1211914 246.929503,71.1211914 C247.326242,71.1211914 247.724534,70.9694607 248.027329,70.6659991 C248.633696,70.0582979 248.633696,69.072437 248.027329,68.4647358 L239.645342,60.0642979 C251.089441,49.7434932 266.888354,45.4405642 281.778882,48.5242003 L244.973758,85.4103393 C244.682609,85.7021293 244.519565,86.0981855 244.519565,86.510582 C244.519565,86.9237565 244.682609,87.3190346 244.973758,87.6108246 L255.027329,97.6865257 L195.49705,157.34862 C178.963665,134.297993 152.375155,120.580754 124.019565,120.580754 C103.14146,120.580754 82.9,128.039683 67.0242236,141.581848 C51.5583851,154.774644 41.1003106,172.956659 37.4807453,192.854399 C15.1166149,205.613789 0.0001552795,229.722641 0.0001552795,257.305739 C0.0001552795,258.596617 0.0350931677,259.91862 0.103416149,261.235955 C0.146118012,262.063082 0.827795031,262.711245 1.65465839,262.711245 L105.337112,262.711245 L146.235404,262.711245 L183.017236,262.711245 L187.268012,262.711245 L325.354969,262.711245 C325.816925,262.711245 326.254814,262.505046 326.549845,262.149452 C326.844099,261.793857 326.96677,261.325437 326.882143,260.871023 C320.387578,225.816546 289.814596,200.373242 254.186491,200.373242 C238.57236,200.373242 223.93028,205.261307 211.858851,213.701428 C211.949689,212.054955 212.000932,210.401478 212.000932,208.756561 C212.000932,207.727126 211.983075,206.682907 211.948137,205.654251 C211.750932,199.951508 210.99705,194.265884 209.718323,188.741328 L277.809938,120.518505 L287.957453,130.689913 C288.261025,130.993375 288.65854,131.145884 289.056056,131.145884 C289.453571,131.145884 289.851087,130.993375 290.154658,130.689913 L298.808385,122.01636 L299.002484,121.822612 C299.01413,121.81094 299.028882,121.802381 299.040528,121.790709 L326.934161,93.8356766 C330.007919,108.842239 325.620497,124.558434 315.168634,135.75383 L305.933385,126.497475 C305.327019,125.889774 304.343323,125.890552 303.736957,126.497475 C303.13059,127.105955 303.13059,128.091038 303.736957,128.698739 L314.088665,139.073233 C314.379814,139.365023 314.774224,139.529203 315.186491,139.529203 C315.598758,139.529203 315.993168,139.365023 316.285093,139.073233 C328.728416,126.60252 333.753261,108.348141 329.522671,91.2344666 L374.146118,46.5135731 C374.437267,46.2217831 374.600311,45.8257269 374.600311,45.4125524 L374.600311,2.34124467 C374.600311,1.92495769 374.427174,1.51878609 374.131366,1.22621805 Z"></path> <path d="M281.873214,102.56502 L273.036258,93.7086118 L302.694643,63.9849432 L311.531599,72.8413515 L281.873214,102.56502 Z M315.280047,72.8413515 C315.280047,72.428955 315.117003,72.0328988 314.825854,71.7411089 L303.792469,60.6842154 C303.186102,60.0765142 302.203183,60.0765142 301.596817,60.6842154 L269.742003,92.6083692 C269.450854,92.9001592 269.287811,93.2962154 269.287811,93.7086118 C269.287811,94.1210083 269.450854,94.5170645 269.742003,94.8088544 L280.775388,105.866526 C281.07896,106.169988 281.475699,106.322496 281.873214,106.322496 C282.27073,106.322496 282.668245,106.169988 282.971817,105.866526 L314.825854,73.9415941 C315.117003,73.6498041 315.280047,73.254526 315.280047,72.8413515 Z"></path> </g> </g> </svg> 