<?xml version="1.0" encoding="UTF-8"?> <svg xmlns="http://www.w3.org/2000/svg" width="61" height="67" viewBox="0 0 61 67"> <g fill="none" fill-rule="evenodd" transform="translate(-7 -4)"> <rect width="75" height="75"></rect> <path fill="#8DDCFF" d="M4.8066,26.9287 L28.9996,51.1207 L28.9996,62.3197 C16.2446,54.8777 8.2066,39.7297 4.8066,26.9287 Z M10.4426,13.5637 L28.9996,32.1207 L28.9996,46.8787 L3.6076,21.4877 C3.3626,20.0557 3.1816,18.6787 3.0696,17.3767 L10.4426,13.5637 Z M28.9996,3.9637 L28.9996,27.8787 L13.2386,12.1167 L28.9996,3.9637 Z M60.1896,15.1677 L31.2206,0.1847 C31.2186,0.1837 31.2186,0.1827 31.2166,0.1827 L31.1896,0.1677 C31.1736,0.1587 31.1566,0.1567 31.1406,0.1487 C31.1006,0.1297 31.0606,0.1137 31.0196,0.0977 C30.9886,0.0867 30.9576,0.0737 30.9256,0.0647 C30.9046,0.0577 30.8806,0.0537 30.8596,0.0477 C30.8206,0.0377 30.7806,0.0307 30.7406,0.0247 C30.7066,0.0187 30.6736,0.0127 30.6406,0.0087 C30.6136,0.0067 30.5866,0.0067 30.5606,0.0057 C30.5386,0.0047 30.5206,-0.0003 30.4996,-0.0003 C30.4826,-0.0003 30.4646,0.0047 30.4476,0.0047 C30.4136,0.0067 30.3816,0.0067 30.3496,0.0107 C30.3226,0.0127 30.2946,0.0187 30.2676,0.0237 C30.2266,0.0307 30.1856,0.0367 30.1466,0.0457 C30.1186,0.0537 30.0926,0.0587 30.0666,0.0667 C30.0386,0.0747 30.0136,0.0857 29.9886,0.0957 C29.9456,0.1117 29.9026,0.1277 29.8616,0.1477 C29.8436,0.1557 29.8266,0.1587 29.8106,0.1677 L0.8106,15.1677 C0.2836,15.4407 -0.0344,15.9997 0.0026,16.5927 C1.6286,42.7997 19.1646,60.9197 29.8356,66.1847 C29.8916,66.2117 29.9496,66.2257 30.0066,66.2447 C30.0466,66.2597 30.0846,66.2777 30.1256,66.2877 C30.2496,66.3207 30.3746,66.3397 30.4986,66.3397 L30.4996,66.3397 L30.5006,66.3397 C30.6256,66.3397 30.7516,66.3197 30.8756,66.2877 C30.9156,66.2777 30.9526,66.2587 30.9936,66.2447 C31.0506,66.2257 31.1096,66.2117 31.1656,66.1837 C41.7506,60.9407 54.8456,45.7427 59.3936,26.8427 C59.5876,26.0377 59.0916,25.2277 58.2856,25.0337 C57.4906,24.8407 56.6716,25.3367 56.4776,26.1417 C52.4526,42.8617 41.5176,56.4737 31.9996,62.2847 L31.9996,3.9637 L58.8106,17.8317 C59.0316,17.9467 59.2666,17.9997 59.4986,17.9997 C60.0416,17.9997 60.5656,17.7047 60.8316,17.1897 C61.2126,16.4527 60.9246,15.5477 60.1896,15.1677 Z" transform="translate(7 4)"></path> </g> </svg> 