<?xml version="1.0" encoding="UTF-8"?> <svg xmlns="http://www.w3.org/2000/svg" width="351" height="340" viewBox="0 0 351 340"> <g fill="none" fill-rule="evenodd" transform="translate(-125 -10)"> <rect width="600" height="360"></rect> <g fill="#8DDCFF" transform="translate(125 10)"> <path d="M290.03021,251.844676 C274.30292,251.844676 260.53298,243.357096 253.060026,230.739059 L309.594375,230.739059 C310.454363,230.739059 311.150916,230.044311 311.150916,229.186548 L311.150916,171.80495 C324.14959,179.168511 332.944046,193.096091 332.944046,209.041936 C332.944046,232.643215 313.692747,251.844676 290.03021,251.844676 M290.03021,166.239196 C296.459503,166.239196 302.558031,167.665954 308.037833,170.204311 L308.037833,227.634037 L251.381297,227.634037 C248.649567,222.008511 247.116375,215.700658 247.116375,209.041936 C247.116375,185.440658 266.367674,166.239196 290.03021,166.239196 M290.03021,163.134174 C264.650809,163.134174 244.003292,183.728237 244.003292,209.041936 C244.003292,234.355635 264.650809,254.949699 290.03021,254.949699 C315.409612,254.949699 336.057128,234.355635 336.057128,209.041936 C336.057128,183.728237 315.409612,163.134174 290.03021,163.134174"></path> <path d="M290.121035,266.344822 C258.442312,266.344822 232.669106,240.639114 232.669106,209.041626 C232.669106,177.444913 258.442312,151.739205 290.121035,151.739205 C321.799757,151.739205 347.572964,177.444913 347.572964,209.041626 C347.572964,240.639114 321.799757,266.344822 290.121035,266.344822 M290.121035,148.634183 C259.218247,148.634183 233.664514,171.844228 230.019094,201.702128 L138.303806,201.702128 L138.303806,3.88112329 L282.535232,3.88112329 L282.535232,134.918521 C282.535232,135.775507 283.231784,136.471032 284.091773,136.471032 C284.950984,136.471032 285.648314,135.775507 285.648314,134.918521 L285.648314,2.32861187 C285.648314,1.47084932 284.950984,0.776100457 284.091773,0.776100457 L136.747265,0.776100457 C135.887276,0.776100457 135.190724,1.47084932 135.190724,2.32861187 L135.190724,203.254639 C135.190724,204.111626 135.887276,204.807151 136.747265,204.807151 L147.344196,204.807151 L147.344196,336.542402 L3.11277073,336.542402 L3.11277073,138.722174 L120.494642,138.722174 C121.354631,138.722174 122.051183,138.026648 122.051183,137.169662 C122.051183,136.3119 121.354631,135.617151 120.494642,135.617151 L1.55622971,135.617151 C0.697019069,135.617151 -0.000311308206,136.3119 -0.000311308206,137.169662 L-0.000311308206,338.094913 C-0.000311308206,338.952676 0.697019069,339.647425 1.55622971,339.647425 L148.892176,339.647425 C149.176245,339.647425 149.463427,339.565142 149.706247,339.418429 C150.172431,339.137425 150.457278,338.633635 150.457278,338.090256 L150.457278,204.807151 L229.721795,204.807151 C229.623733,206.207516 229.556024,207.61642 229.556024,209.041626 C229.556024,228.967333 239.283627,246.662858 254.244321,257.672493 L200.149072,311.627699 C196.597824,315.169753 190.819944,315.169753 187.268695,311.627699 C183.718225,308.08642 183.718225,302.322721 187.268695,298.781443 L233.277713,252.890758 C233.885542,252.284502 233.885542,251.302539 233.277713,250.695507 C232.669884,250.089251 231.684593,250.089251 231.076764,250.695507 L185.067746,296.586192 C180.303174,301.338429 180.303174,309.071489 185.067746,313.823726 C187.450032,316.199845 190.579458,317.387516 193.708884,317.387516 C196.83831,317.387516 199.967735,316.199845 202.350021,313.823726 L256.839075,259.475735 C266.397793,265.771945 277.834478,269.449845 290.121035,269.449845 C323.516622,269.449845 350.686046,242.350758 350.686046,209.041626 C350.686046,175.733269 323.516622,148.634183 290.121035,148.634183"></path> <path d="M274.590802 208.354639C274.895106 208.658155 275.292802 208.809525 275.691277 208.809525 276.089751 208.809525 276.488226 208.658155 276.792529 208.354639L292.923742 192.265187C293.531572 191.658932 293.531572 190.676192 292.923742 190.06916 292.315913 189.46368 291.330623 189.46368 290.722015 190.06916L275.691277 205.060986 270.558583 199.94158C269.950753 199.335324 268.964685 199.335324 268.356855 199.94158 267.749026 200.547836 267.749026 201.530575 268.356855 202.136831L274.590802 208.354639zM63.792888 107.589196C64.1913625 107.589196 64.589837 107.437826 64.8933625 107.135087L99.166061 72.9503379 99.166061 81.6211142C99.166061 82.4781005 99.8633914 83.1736256 100.722602 83.1736256 101.582591 83.1736256 102.279143 82.4781005 102.279143 81.6211142L102.279143 69.2576895C102.279143 68.4007032 101.582591 67.7051781 100.722602 67.7051781L88.3278659 67.7051781C87.4678769 67.7051781 86.7713248 68.4007032 86.7713248 69.2576895 86.7713248 70.1154521 87.4678769 70.8102009 88.3278659 70.8102009L96.9098548 70.8102009 62.6924135 104.939059C62.0845843 105.545315 62.0845843 106.528055 62.6924135 107.135087 62.995939 107.437826 63.3944135 107.589196 63.792888 107.589196M210.419363 132.809201L180.323643 102.791393 210.419363 72.7743607 240.515084 102.791393 210.419363 132.809201zM209.318889 69.4807078L177.022219 101.693767C176.41439 102.300023 176.41439 103.282763 177.022219 103.889795L209.318889 136.102854C209.61074 136.39395 210.006102 136.55774 210.419363 136.55774 210.832625 136.55774 211.227986 136.39395 211.519838 136.102854L243.816508 103.889795C244.424337 103.282763 244.424337 102.300023 243.816508 101.693767L211.519838 69.4807078C210.936135 68.8977397 209.902592 68.8977397 209.318889 69.4807078zM76.3290359 266.55216L75.2285614 267.649785 74.1280869 266.55216C73.5202576 265.945904 72.5349672 265.945904 71.9271379 266.55216 71.3185304 267.158416 71.3185304 268.141155 71.9263596 268.747411L74.1280869 270.943438C74.4199384 271.234534 74.8152998 271.398324 75.2285614 271.398324 75.6410448 271.398324 76.0371845 271.234534 76.3290359 270.943438L78.5307632 268.747411C79.1385925 268.141155 79.1385925 267.158416 78.5299849 266.55216 77.9229339 265.945904 76.9368652 265.945904 76.3290359 266.55216M52.2976769 244.778342C51.6898477 244.172087 50.7037789 244.172863 50.0959497 244.778342 49.4881204 245.384598 49.4881204 246.367338 50.0959497 246.97437L54.947688 251.812772C55.2512135 252.115511 55.649688 252.266881 56.0481625 252.266881 56.446637 252.266881 56.8451115 252.115511 57.148637 251.812772 57.7564663 251.206516 57.7564663 250.223776 57.148637 249.616744L52.2976769 244.778342zM65.8626984 262.69968C66.1670022 263.00242 66.5646984 263.15379 66.9631729 263.15379 67.3616475 263.15379 67.760122 263.00242 68.0644257 262.69968 68.672255 262.093425 68.672255 261.109909 68.0644257 260.503653L63.2126874 255.665251C62.6048581 255.058995 61.6195676 255.058995 61.0117384 255.665251 60.4039091 256.271507 60.4039091 257.254247 61.0117384 257.861279L65.8626984 262.69968zM46.2335488 234.3391C45.6257195 233.732845 44.640429 233.732845 44.0325998 234.3391L41.8308725 236.535128C41.5390211 236.826224 41.3755843 237.220562 41.3755843 237.632753 41.3755843 238.044169 41.5390211 238.439283 41.8316508 238.730379L44.0325998 240.92563C44.3361253 241.22837 44.7345998 241.380516 45.1330743 241.380516 45.5315488 241.380516 45.9300233 241.22837 46.2335488 240.92563 46.841378 240.319374 46.841378 239.335858 46.2335488 238.729603L45.1330743 237.631977 46.2335488 236.534352C46.841378 235.928096 46.841378 234.945356 46.2335488 234.3391M57.1489483 223.452192C56.5411191 222.845936 55.5558286 222.845936 54.9472211 223.452192L50.096261 228.290594C49.4884317 228.896849 49.4884317 229.880365 50.096261 230.486621 50.4005647 230.789361 50.798261 230.940731 51.1967355 230.940731 51.59521 230.940731 51.9936845 230.789361 52.2979882 230.486621L57.1489483 225.648219C57.7567776 225.041187 57.7567776 224.058447 57.1489483 223.452192M62.112135 220.054132C62.5106095 220.054132 62.909084 219.902763 63.2126095 219.599247L68.0635696 214.760845C68.6713989 214.154589 68.6713989 213.171849 68.0635696 212.565594 67.4557404 211.958562 66.4704499 211.959338 65.8626206 212.565594L61.0116605 217.403995C60.4038313 218.010251 60.4038313 218.992991 61.0116605 219.599247 61.315186 219.902763 61.7136605 220.054132 62.112135 220.054132M78.5302962 206.516699L76.3293472 204.321447C75.721518 203.715192 74.7354492 203.715192 74.1283982 204.321447L71.926671 206.516699C71.3188417 207.122954 71.3188417 208.105694 71.926671 208.712726 72.5345002 209.318205 73.520569 209.318982 74.12762 208.712726L75.2288727 207.6151 76.3293472 208.712726C76.6328727 209.015466 77.0313472 209.167612 77.4298217 209.167612 77.8282962 209.167612 78.2267707 209.015466 78.5302962 208.712726 79.1381255 208.105694 79.1381255 207.122954 78.5302962 206.516699M89.445618 217.403995L84.5946579 212.565594C83.9868286 211.958562 83.0015381 211.958562 82.3929306 212.565594 81.7851013 213.171073 81.7851013 214.153813 82.3929306 214.760845L87.2438907 219.599247C87.5481945 219.902763 87.946669 220.054132 88.3451435 220.054132 88.7428397 220.054132 89.1413142 219.902763 89.445618 219.599247 90.0534472 218.992991 90.0534472 218.010251 89.445618 217.403995M99.2599204 230.941041C99.6583949 230.941041 100.056869 230.789671 100.360395 230.486932 100.968224 229.8799 100.968224 228.89716 100.360395 228.290128L95.5094348 223.452502C94.9016055 222.846247 93.9163151 222.84547 93.3084858 223.452502 92.7006565 224.057982 92.7006565 225.041498 93.3084858 225.647753L98.1594459 230.486932C98.4629714 230.789671 98.8614459 230.941041 99.2599204 230.941041M104.223263 240.925553C104.527567 241.229068 104.925263 241.380438 105.323737 241.380438 105.722212 241.380438 106.120686 241.229068 106.424212 240.925553L108.625939 238.730301C108.91779 238.439205 109.082006 238.044868 109.082006 237.632676 109.082006 237.22126 108.91779 236.826146 108.625939 236.53505L106.42499 234.339023C105.817161 233.732767 104.831092 233.732767 104.223263 234.339023 103.615433 234.945279 103.615433 235.928018 104.223263 236.534274L105.323737 237.6319 104.223263 238.729525C103.615433 239.336557 103.615433 240.319297 104.223263 240.925553M94.4090381 252.267269C94.8075126 252.267269 95.2059871 252.1159 95.5095126 251.81316L100.360473 246.974758C100.968302 246.367726 100.968302 245.384986 100.360473 244.778731 99.7526435 244.172475 98.767353 244.172475 98.1595237 244.778731L93.3085636 249.617132C92.7007344 250.223388 92.7007344 251.206128 93.3085636 251.81316 93.6120891 252.1159 94.0105636 252.267269 94.4090381 252.267269M87.244202 255.665639L82.3932419 260.504041C81.7854126 261.110297 81.7854126 262.093037 82.3932419 262.700068 82.6967674 263.002808 83.0952419 263.154178 83.4937164 263.154178 83.8921909 263.154178 84.2906654 263.002808 84.5941909 262.700068L89.4459293 257.86089C90.0537585 257.254635 90.0537585 256.271895 89.4459293 255.665639 88.8373217 255.059384 87.8520313 255.059384 87.244202 255.665639"></path> </g> </g> </svg> 