<?xml version="1.0" encoding="UTF-8"?> <svg xmlns="http://www.w3.org/2000/svg" width="128" height="57" viewBox="0 0 128 57"> <g fill="#0D2E52" fill-rule="evenodd"> <path d="M4.1495,21.6508 L23.8385,21.6508 L31.0425,4.5598 L8.8975,4.5598 L4.1495,21.6508 Z M13.5535,56.9998 C12.9735,56.9998 12.3885,56.8318 11.8675,56.4878 C10.6435,55.6808 10.1695,54.1678 10.7135,52.8058 C10.7175,52.7958 10.7225,52.7848 10.7265,52.7738 L20.4445,29.7038 C20.8615,28.7148 22.0015,28.2518 22.9895,28.6678 C23.9775,29.0838 24.4415,30.2228 24.0255,31.2118 L15.9655,50.3448 L40.7735,25.5358 L3.0535,25.5358 C2.1075,25.5358 1.2305,25.1088 0.6475,24.3618 C0.0655,23.6158 -0.1365,22.6618 0.0925,21.7428 C0.0965,21.7268 0.1005,21.7108 0.1055,21.6938 L5.3105,2.9568 C5.6615,1.6108 6.8715,0.6748 8.2645,0.6748 L32.2955,0.6748 C33.3105,0.6748 34.2555,1.1758 34.8245,2.0168 C35.3925,2.8568 35.5065,3.9198 35.1295,4.8618 C35.1265,4.8728 35.1215,4.8828 35.1165,4.8938 L28.0545,21.6508 L42.7835,21.6508 C44.0225,21.6508 45.1285,22.3908 45.6035,23.5348 C46.0775,24.6798 45.8175,25.9858 44.9415,26.8618 L15.7065,56.0988 C15.1115,56.6938 14.3375,56.9998 13.5535,56.9998 Z"></path> <g transform="translate(54 20)"> <path d="M12.2989 20.978L3.9959 20.978 3.9959 3.651C3.9959 2.573 3.1189 1.697 2.0419 1.697.9649 1.697.0879 2.573.0879 3.651L.0879 24.144C.0879 24.553.4209 24.886.8299 24.886L12.2989 24.886C13.3759 24.886 14.2529 24.009 14.2529 22.932 14.2529 21.854 13.3759 20.978 12.2989 20.978M29.5685 8.3974C28.5085 8.3974 27.6475 9.2594 27.6475 10.3184L27.6475 16.2094C27.6475 19.7984 26.1545 21.7744 23.4435 21.7744 20.9625 21.7744 19.5385 20.0244 19.5385 16.9734L19.5385 10.3184C19.5385 9.2594 18.6765 8.3974 17.6185 8.3974 16.5585 8.3974 15.6975 9.2594 15.6975 10.3184L15.6975 17.1394C15.6975 22.5654 18.1915 25.3174 23.1115 25.3174 25.0565 25.3174 26.5975 24.6814 27.7025 23.4234 27.9085 24.2624 28.6675 24.8854 29.5685 24.8854 30.6275 24.8854 31.4885 24.0244 31.4885 22.9654L31.4885 10.3184C31.4885 9.2594 30.6275 8.3974 29.5685 8.3974M41.714 7.9657C39.602 7.9107 37.459 8.8227 35.831 10.4487 34.129 12.1487 33.182 14.4327 33.232 16.7037 33.198 18.9777 34.134 21.2277 35.797 22.8787 37.366 24.4357 39.453 25.3197 41.541 25.3197 41.597 25.3197 41.652 25.3187 41.708 25.3177 44.236 25.3177 46.513 24.3187 47.952 22.5767 48.321 22.1307 48.449 21.5497 48.303 20.9857 48.156 20.4207 47.744 19.9557 47.202 19.7437 46.462 19.4547 45.621 19.6867 45.111 20.3197 44.341 21.2797 43.132 21.8077 41.708 21.8077 40.318 21.8077 39.193 21.3257 38.365 20.3767 37.529 19.4167 37.106 18.1827 37.106 16.7077 37.106 15.1907 37.518 13.9797 38.365 13.0067 39.212 12.0347 40.337 11.5417 41.708 11.5417 43.316 11.5417 44.532 12.1407 45.324 13.3227 45.79 14.0187 46.673 14.3037 47.468 14.0177 48.019 13.8197 48.437 13.3837 48.612 12.8237 48.783 12.2797 48.693 11.7047 48.367 11.2457 46.909 9.1917 44.42 7.9657 41.714 7.9657M53.1007.9394C51.6367.9394 50.4007 2.1614 50.4007 3.6064 50.4007 5.0534 51.6367 6.2744 53.1007 6.2744 54.4867 6.2744 55.7027 5.0274 55.7027 3.6064 55.7027 2.1864 54.4867.9394 53.1007.9394M52.9845 8.3974C51.9075 8.3974 51.0315 9.2734 51.0315 10.3514L51.0315 22.9324C51.0315 24.0094 51.9075 24.8854 52.9845 24.8854 54.0615 24.8854 54.9385 24.0094 54.9385 22.9324L54.9385 10.3514C54.9385 9.2734 54.0615 8.3974 52.9845 8.3974M69.9591 16.6083C69.9591 19.6983 68.0231 21.9413 65.3571 21.9413 64.2051 21.9413 63.1221 21.4833 62.3081 20.6533 61.3711 19.6983 60.8481 18.3213 60.8211 16.7533L60.8451 16.7533 60.8551 16.4863C60.9891 12.9523 63.3521 11.3423 65.4901 11.3423 68.1211 11.3423 69.9591 13.5073 69.9591 16.6083M72.0291 1.6963C70.9421 1.6963 70.0591 2.5813 70.0591 3.6673L70.0591 9.6763C68.7281 8.4983 66.9531 7.8333 65.0921 7.8333 63.0371 7.8333 61.1121 8.5943 59.6711 9.9763 58.1371 11.4493 57.2371 13.5273 57.0631 15.9993L57.0231 15.9993 57.0141 16.2663C56.9131 18.9863 57.7621 21.4223 59.4031 23.1263 60.8481 24.6253 62.7971 25.4503 64.8931 25.4503 66.8521 25.4503 68.7131 24.6713 70.0951 23.2913 70.2711 24.1983 71.0711 24.8853 72.0291 24.8853 73.1161 24.8853 74.0001 24.0023 74.0001 22.9153L74.0001 3.6673C74.0001 2.5813 73.1161 1.6963 72.0291 1.6963"></path> </g> </g> </svg> 