<?xml version="1.0" encoding="UTF-8"?> <svg xmlns="http://www.w3.org/2000/svg" width="54" height="71" viewBox="0 0 54 71"> <g fill="none" fill-rule="evenodd" transform="translate(-10 -2)"> <rect width="73" height="75"></rect> <path fill="#8DDCFF" d="M48.6009818,61 L48.6,61 L13.2535636,61 L13.2525818,61 C11.9202545,61 10.8422182,59.938 10.8,58.63 L10.7990182,16.419 C10.8422182,15.062 11.9202545,14 13.2535636,14 L13.2545455,14 L33.8727273,14 C34.6856727,14 35.3454545,13.328 35.3454545,12.5 C35.3454545,11.672 34.6856727,11 33.8727273,11 L24.1399636,11 C24.7653818,5.136 29.0470909,3 32.8025455,3 C37.4671636,3 40.2545455,7.25 40.2545455,11.359 L40.2545455,40.5 C40.2545455,40.514 40.2584727,40.526 40.2584727,40.539 C40.2584727,40.555 40.2555273,40.569 40.2565091,40.584 C40.3222909,41.773 39.8853818,42.938 39.0586909,43.781 C38.2300364,44.624 37.0822909,45.084 35.9188364,45.002 C35.8628727,45 35.8098545,45 35.7538909,45.002 C34.5924,45.082 33.4426909,44.624 32.6140364,43.781 C31.7873455,42.938 31.3504364,41.773 31.4181818,40.5 L31.4181818,21.5 C31.4181818,20.672 30.7584,20 29.9454545,20 C29.1325091,20 28.4727273,20.672 28.4727273,21.5 L28.4746909,40.416 C28.3627636,42.457 29.1118909,44.457 30.5316,45.902 C31.9306909,47.329 33.8550545,48.098 35.8363636,48.002 C35.9404364,48.007 36.0445091,48.009 36.1476,48.009 C38.0140364,48.009 39.8156727,47.254 41.1411273,45.902 C42.5362909,44.481 43.2805091,42.522 43.1980364,40.517 C43.1980364,40.511 43.2,40.506 43.2,40.5 L43.2,14 L48.5617091,13.999 C49.9244727,14.036 51.0192,15.151 51.0545455,16.5 L51.0555273,58.581 C51.0123273,59.938 49.9342909,61 48.6009818,61 Z M53.9990182,16.461 C53.9224364,13.478 51.5670545,11.079 48.6,11 L43.1842909,11 C43.0213091,5.53 39.1716,0 32.7534545,0 C26.3745818,0 21.7904727,4.453 21.1827273,11 L13.2555273,11 L13.2525818,11 C10.3218545,11 7.95076364,13.337 7.85454545,16.37 L7.85552727,58.679 C7.95076364,61.663 10.3218545,64 13.2516,64 L13.2545455,64 L44.1818182,64 L44.1828,65.461 C44.1464727,66.849 43.0517455,67.964 41.7272727,68 L5.39901818,68 L5.39803636,68 C4.06570909,68 2.98767273,66.937 2.94545455,65.63 L2.94545455,23.5 C2.94545455,22.672 2.28567273,22 1.47272727,22 C0.659781818,22 0,22.672 0,23.5 L0.000981818182,65.679 C0.0962181818,68.663 2.46730909,71 5.39705455,71 L5.4,71 L41.7655636,70.999 C44.6943273,70.921 47.0497091,68.522 47.1272727,65.5 L47.1272727,64 L48.5990182,64 L48.6019636,64 C51.5326909,64 53.9037818,61.663 54,58.63 L53.9990182,16.461 Z" transform="translate(10 2)"></path> </g> </svg> 