<?xml version="1.0" encoding="UTF-8"?> <svg xmlns="http://www.w3.org/2000/svg" xmlns:xlink="http://www.w3.org/1999/xlink" width="76px" height="72px" viewBox="0 0 76 72"> <!-- Generator: Sketch 49.2 (51160) - http://www.bohemiancoding.com/sketch --> <title>noun_566220_cc</title> <desc>Created with Sketch.</desc> <defs></defs> <g id="Final-screens" stroke="none" stroke-width="1" fill="none" fill-rule="evenodd"> <g id="noun_566220_cc" fill="#000000" fill-rule="nonzero"> <path d="M72.464,62.286 C72.445,62.286 72.429,62.291 72.41,62.292 L69.115,45.024 C71.048,44.435 72.464,42.66 72.464,40.535 C72.464,38.103 70.614,36.124 68.249,35.871 L68.249,19.669 C69.598,19.432 70.624,18.261 70.624,16.845 C70.624,15.257 69.337,13.97 67.749,13.97 C67.192,13.97 66.678,14.135 66.237,14.408 L56.128,3.126 C56.175,2.935 56.206,2.737 56.206,2.531 C56.206,1.138 55.077,0.01 53.685,0.01 C52.463,0.01 51.446,0.879 51.214,2.031 L17.161,2.031 C16.96,1.514 16.461,1.147 15.874,1.147 C15.11,1.147 14.49,1.766 14.49,2.531 C14.49,2.896 14.636,3.226 14.867,3.474 L3.687,26.79 C3.492,26.741 3.291,26.708 3.082,26.708 C1.701,26.708 0.582,27.827 0.582,29.208 C0.582,30.407 1.428,31.408 2.556,31.65 L8.415,53.393 C7.438,53.852 6.758,54.838 6.758,55.989 C6.758,57.577 8.045,58.864 9.633,58.864 C10.537,58.864 11.334,58.437 11.862,57.784 L35.159,67.641 C35.065,67.951 35,68.273 35,68.614 C35,70.478 36.512,71.989 38.375,71.989 C40.238,71.989 41.75,70.478 41.75,68.614 C41.75,67.893 41.52,67.228 41.134,66.679 L47.89,60.254 C48.111,60.371 48.358,60.443 48.625,60.443 C49.176,60.443 49.659,60.16 49.942,59.733 L69.537,64.973 C69.529,65.062 69.511,65.147 69.511,65.238 C69.511,66.87 70.833,68.192 72.465,68.192 C74.097,68.192 75.419,66.87 75.419,65.238 C75.419,63.606 74.096,62.286 72.464,62.286 Z M67.249,19.669 L67.249,35.871 C65.852,36.02 64.633,36.761 63.873,37.859 L52.227,31.529 C52.234,31.475 52.244,31.422 52.244,31.365 C52.244,31.208 52.212,31.059 52.163,30.92 L65.94,19.062 C66.312,19.366 66.756,19.582 67.249,19.669 Z M63.15,41.55 L50.188,45.896 L51.272,32.667 C51.45,32.613 51.61,32.525 51.749,32.409 L63.394,38.737 C63.165,39.292 63.035,39.898 63.035,40.536 C63.034,40.885 63.078,41.223 63.15,41.55 Z M11.732,28.238 L24.723,20.196 C25.259,20.636 25.937,20.913 26.686,20.913 C26.855,20.913 27.017,20.889 27.179,20.863 L31.283,33.174 C30.419,33.651 29.826,34.559 29.826,35.615 C29.826,35.733 29.847,35.845 29.86,35.96 L17.931,39.715 C17.604,38.897 16.808,38.317 15.873,38.317 C15.503,38.317 15.159,38.417 14.852,38.577 L11.306,29.506 C11.58,29.253 11.756,28.894 11.756,28.491 C11.758,28.403 11.747,28.32 11.732,28.238 Z M18.073,40.718 L30.16,36.914 C30.63,37.802 31.551,38.413 32.624,38.413 C32.766,38.413 32.901,38.392 33.038,38.371 L36.477,48.427 C36.168,48.608 35.901,48.847 35.695,49.137 L17.959,41.265 C18.02,41.091 18.058,40.908 18.073,40.718 Z M32.624,32.817 C32.489,32.817 32.36,32.838 32.231,32.856 L28.127,20.543 C28.952,20.107 29.562,19.322 29.739,18.375 L42.837,18.688 C42.879,18.801 42.932,18.909 43.001,19.006 L33.724,33.043 C33.386,32.898 33.015,32.817 32.624,32.817 Z M43.835,19.559 C43.927,19.58 44.023,19.59 44.121,19.59 C44.199,19.59 44.274,19.58 44.349,19.568 L49.862,30.464 C49.689,30.657 49.573,30.899 49.534,31.166 L35.19,34.506 C35.042,34.161 34.823,33.856 34.556,33.6 L43.835,19.559 Z M45.207,19.049 C45.3,18.928 45.371,18.791 45.42,18.643 L64.958,17.508 C65.026,17.793 65.14,18.06 65.285,18.306 L51.51,30.162 C51.32,30.063 51.107,30 50.878,30 C50.835,30 50.796,30.009 50.754,30.013 L45.207,19.049 Z M52.303,4.638 C52.7,4.899 53.174,5.053 53.685,5.053 C54.486,5.053 55.19,4.673 55.652,4.092 L65.497,15.078 C65.179,15.483 64.972,15.972 64.909,16.509 L45.366,17.645 C45.317,17.539 45.254,17.442 45.18,17.353 L52.303,4.638 Z M17.16,3.031 L51.214,3.031 C51.277,3.346 51.402,3.637 51.57,3.898 L44.307,16.863 C44.245,16.854 44.184,16.844 44.12,16.844 C43.551,16.844 43.061,17.192 42.854,17.687 L29.752,17.374 C29.541,15.861 28.255,14.691 26.685,14.691 C26.195,14.691 25.738,14.814 25.326,15.016 L17.025,3.292 C17.081,3.213 17.124,3.124 17.16,3.031 Z M16.097,3.894 C16.135,3.887 16.172,3.88 16.209,3.871 L24.506,15.589 C23.933,16.153 23.576,16.937 23.576,17.804 C23.576,18.405 23.755,18.961 24.051,19.438 L11.203,27.39 C11.179,27.371 11.156,27.352 11.13,27.334 L16.097,3.894 Z M14.519,6.514 L10.152,27.129 C9.619,27.216 9.191,27.607 9.048,28.119 L5.46,28.473 C5.305,27.969 4.999,27.536 4.589,27.225 L14.519,6.514 Z M9.633,53.115 C9.547,53.115 9.466,53.133 9.383,53.14 L3.593,31.656 C4.646,31.437 5.444,30.554 5.557,29.468 L9.146,29.114 C9.375,29.562 9.836,29.875 10.375,29.875 C10.377,29.875 10.378,29.874 10.379,29.874 L14.054,39.273 C13.805,39.631 13.658,40.066 13.658,40.535 C13.658,41.285 14.034,41.948 14.606,42.35 L10.245,53.183 C10.046,53.141 9.843,53.115 9.633,53.115 Z M37.247,65.447 C36.561,65.691 35.974,66.138 35.573,66.731 L12.345,56.903 C12.442,56.615 12.507,56.311 12.507,55.99 C12.507,54.968 11.97,54.076 11.166,53.566 L15.532,42.72 C15.644,42.738 15.757,42.754 15.873,42.754 C16.476,42.754 17.02,42.511 17.421,42.119 L35.287,50.049 C35.249,50.225 35.224,50.405 35.224,50.593 C35.224,51.815 36.092,52.832 37.245,53.064 L37.245,65.447 L37.247,65.447 Z M37.424,48.104 L33.984,38.045 C34.181,37.935 34.365,37.806 34.529,37.653 L47.034,46.952 L39.922,49.337 C39.486,48.584 38.681,48.071 37.748,48.071 C37.637,48.072 37.531,48.091 37.424,48.104 Z M48.248,57.335 C47.559,57.505 47.044,58.123 47.044,58.865 C47.044,59.104 47.102,59.329 47.196,59.532 L40.437,65.962 C39.865,65.517 39.155,65.24 38.374,65.24 C38.33,65.24 38.29,65.251 38.247,65.253 L38.247,53.064 C39.399,52.833 40.268,51.815 40.268,50.593 C40.268,50.488 40.249,50.387 40.238,50.285 L48.011,47.679 L48.981,48.401 L48.248,57.335 Z M48.189,46.566 L35.122,36.85 C35.308,36.476 35.422,36.061 35.422,35.616 C35.422,35.569 35.41,35.526 35.408,35.481 L49.755,32.14 C49.887,32.33 50.068,32.483 50.276,32.585 L49.157,46.241 L48.189,46.566 Z M69.787,64.007 L50.194,58.768 C50.156,58.159 49.779,57.642 49.244,57.413 L49.926,49.104 L69.839,63.913 C69.822,63.944 69.803,63.974 69.787,64.007 Z M70.431,63.105 L50.021,47.929 L50.099,46.98 L63.472,42.497 C64.218,44.118 65.847,45.25 67.748,45.25 C67.879,45.25 68.003,45.222 68.131,45.211 L71.428,62.483 C71.054,62.623 70.716,62.834 70.431,63.105 Z" id="Shape"></path> </g> </g> </svg> 