<?xml version="1.0" encoding="UTF-8"?> <svg xmlns="http://www.w3.org/2000/svg" xmlns:xlink="http://www.w3.org/1999/xlink" width="75" height="69" viewBox="0 0 75 69"> <defs> <polygon id="feature-icon-3@1x-a" points=".375 .873 73.99 .873 73.99 45.88 .375 45.88"></polygon> </defs> <g fill="none" fill-rule="evenodd" transform="translate(0 -3)"> <rect width="75" height="75"></rect> <g transform="translate(.5 2.5)"> <mask id="feature-icon-3@1x-b" fill="#fff"> <use xlink:href="#feature-icon-3@1x-a"></use> </mask> <path fill="#8DDCFF" d="M73.9258,27.3076 C73.1818,18.7836 66.1288,12.1806 57.6988,11.8586 C57.5248,11.7846 57.3338,11.7426 57.1338,11.7406 C57.0798,11.7406 57.0268,11.7396 56.9728,11.7396 C56.6018,11.7396 56.2358,11.7686 55.8688,11.7916 C51.2578,4.2936 42.7678,0.0846 33.9478,0.9956 C25.1578,1.9116 17.7378,7.7516 14.7518,15.9966 C9.6708,16.1696 5.0198,18.9176 2.4218,23.3536 C-0.3702,28.1196 -0.3022,33.9996 2.5998,38.6996 C5.4868,43.3736 10.6688,46.0666 16.1558,45.7426 L18.3508,45.8286 C19.1808,45.8556 19.8758,45.2166 19.9088,44.3896 C19.9418,43.5616 19.2968,42.8646 18.4698,42.8306 L16.1988,42.7416 C16.1468,42.7386 16.0958,42.7406 16.0418,42.7436 C11.6468,43.0306 7.4688,40.8746 5.1528,37.1226 C2.8358,33.3696 2.7808,28.6746 5.0098,24.8696 C7.2388,21.0646 11.3578,18.7886 15.7678,18.9986 C16.4168,19.0156 17.0628,18.5936 17.2638,17.9426 C19.6238,10.2896 26.2948,4.8096 34.2588,3.9806 C41.4898,3.2146 48.4768,6.4596 52.6098,12.3176 C49.7558,13.0656 47.1288,14.5286 44.9688,16.6516 C41.7018,19.8596 39.8808,24.1486 39.8398,28.7266 C39.8318,29.5556 40.4978,30.2326 41.3258,30.2406 L41.3398,30.2406 C42.1618,30.2406 42.8318,29.5776 42.8398,28.7536 C42.8738,24.9766 44.3758,21.4386 47.0708,18.7916 C49.2538,16.6476 52.0118,15.3116 54.9888,14.8936 C55.0648,14.8976 55.1408,14.9116 55.2178,14.9036 C55.7478,14.8546 56.2598,14.8296 56.7688,14.8296 C64.0298,14.6716 70.3018,20.2886 70.9378,27.5696 C71.5748,34.8516 66.4178,41.4446 59.2608,42.5696 L56.4308,42.8896 C55.6078,42.9826 55.0158,43.7256 55.1098,44.5486 C55.1968,45.3146 55.8448,45.8796 56.5978,45.8796 C56.6548,45.8796 56.7108,45.8766 56.7688,45.8696 L59.6618,45.5406 C68.4358,44.1636 74.6998,36.1546 73.9258,27.3076" mask="url(#feature-icon-3@1x-b)"></path> <path fill="#8DDCFF" d="M58.5693 57.4482L54.8413 53.6572C54.2613 53.0652 53.3113 53.0592 52.7203 53.6392 52.1303 54.2202 52.1223 55.1702 52.7033 55.7612L53.9223 57.0002 49.0003 57.0002 49.0003 44.5002C49.0003 43.6722 48.3283 43.0002 47.5003 43.0002 46.6723 43.0002 46.0003 43.6722 46.0003 44.5002L46.0003 58.5002C46.0003 59.3282 46.6723 60.0002 47.5003 60.0002L54.1273 60.0002 52.7033 61.4482C52.1223 62.0392 52.1303 62.9882 52.7203 63.5692 53.0123 63.8562 53.3923 64.0002 53.7723 64.0002 54.1603 64.0002 54.5483 63.8502 54.8413 63.5522L58.5693 59.7612C58.8833 59.4412 59.0103 59.0182 58.9813 58.6042 59.0103 58.1902 58.8833 57.7672 58.5693 57.4482M40.2393 62.7031L39.0003 63.9221 39.0003 44.5001C39.0003 43.6721 38.3283 43.0001 37.5003 43.0001L27.5003 43.0001C26.6723 43.0001 26.0003 43.6721 26.0003 44.5001L26.0003 57.0001 21.1213 57.0001 22.5603 55.5601C23.1463 54.9741 23.1463 54.0251 22.5603 53.4391 21.9743 52.8531 21.0253 52.8531 20.4393 53.4391L16.4393 57.4391C15.8533 58.0251 15.8533 58.9741 16.4393 59.5601L20.4393 63.5601C20.7323 63.8531 21.1163 64.0001 21.5003 64.0001 21.8843 64.0001 22.2673 63.8531 22.5603 63.5601 23.1463 62.9741 23.1463 62.0251 22.5603 61.4391L21.1213 60.0001 27.5003 60.0001C28.3283 60.0001 29.0003 59.3281 29.0003 58.5001L29.0003 46.0001 36.0003 46.0001 36.0003 64.1271 34.5523 62.7031C33.9623 62.1231 33.0103 62.1291 32.4303 62.7211 31.8493 63.3111 31.8573 64.2611 32.4483 64.8421L36.2393 68.5691C36.5313 68.8561 36.9113 69.0001 37.2913 69.0001 37.3263 69.0001 37.3593 68.9811 37.3953 68.9791 37.4313 68.9811 37.4653 69.0001 37.5003 69.0001 37.8803 69.0001 38.2603 68.8561 38.5523 68.5691L42.3433 64.8421C42.9333 64.2611 42.9413 63.3111 42.3603 62.7211 41.7813 62.1301 40.8303 62.1241 40.2393 62.7031"></path> </g> </g> </svg> 