<?xml version="1.0" encoding="UTF-8"?> <svg xmlns="http://www.w3.org/2000/svg" width="75" height="68" viewBox="0 0 75 68"> <g fill="none" fill-rule="evenodd" transform="translate(0 -3)"> <rect width="75" height="75"></rect> <g fill="#8DDCFF" transform="translate(.5 3.5)"> <path d="M26.3477,26.8975 C25.9977,27.0965 25.5937,27.1515 25.2097,27.0465 C24.8237,26.9435 24.4987,26.6955 24.2987,26.3475 C24.0987,26.0015 24.0457,25.5965 24.1497,25.2095 C24.2527,24.8225 24.5007,24.4995 24.8477,24.2985 C25.0787,24.1655 25.3357,24.0965 25.5957,24.0965 C25.7267,24.0965 25.8577,24.1145 25.9867,24.1485 C26.3737,24.2525 26.6977,24.5015 26.8977,24.8475 C27.3107,25.5635 27.0637,26.4835 26.3477,26.8975 M29.4947,23.3475 C28.8947,22.3065 27.9237,21.5625 26.7627,21.2515 C25.5987,20.9405 24.3877,21.0995 23.3477,21.7015 C22.3067,22.3015 21.5627,23.2725 21.2507,24.4335 C20.9407,25.5945 21.1007,26.8065 21.7017,27.8475 C22.3017,28.8885 23.2717,29.6335 24.4337,29.9445 C24.8217,30.0485 25.2137,30.0995 25.6057,30.0995 C26.3847,30.0995 27.1547,29.8955 27.8477,29.4955 C29.9957,28.2545 30.7357,25.4975 29.4947,23.3475"></path> <path d="M37.9551,4 C37.2601,4.018 36.2571,4.053 34.8331,4.175 C29.0841,1.048 17.6681,-0.244 11.4331,0.042 C10.8531,0.067 10.3411,0.425 10.1171,0.96 C9.8931,1.494 9.9961,2.11 10.3841,2.542 C13.1071,5.579 15.0351,10.542 14.9941,14.278 C12.0701,17.355 9.8431,20.97 8.4191,25 L3.5001,25 C1.5701,25 9.99999975e-05,26.57 9.99999975e-05,28.5 L9.99999975e-05,40.5 C9.99999975e-05,42.43 1.5701,44 3.5001,44 L8.3511,44 C9.4861,47.986 11.6421,53.138 15.6531,57.023 C16.3941,57.789 17.1821,58.522 18.0001,59.21 L18.0001,65.81 C18.0001,66.638 18.6721,67.31 19.5001,67.31 C20.3281,67.31 21.0001,66.638 21.0001,65.81 L21.0001,58.5 C21.0001,58.045 20.7931,57.614 20.4371,57.329 C19.5161,56.591 18.6311,55.785 17.7741,54.902 C13.8431,51.094 11.8951,45.855 10.9541,42.132 C10.7861,41.467 10.1861,41 9.5001,41 L3.5001,41 C3.2251,41 3.0001,40.775 3.0001,40.5 L3.0001,28.5 C3.0001,28.225 3.2251,28 3.5001,28 L9.5001,28 C10.1551,28 10.7351,27.574 10.9321,26.948 C12.9031,20.657 16.9971,15.408 22.7691,11.769 C23.4711,11.327 23.6811,10.401 23.2381,9.7 C22.7971,9 21.8691,8.788 21.1701,9.231 C19.9741,9.985 18.8621,10.819 17.7991,11.695 C17.3401,8.778 16.1481,5.643 14.4851,3.025 C20.7251,3.201 29.6051,4.562 33.7371,7.002 C34.0091,7.162 34.3321,7.229 34.6341,7.204 C36.1411,7.068 37.2321,7 37.8841,7 L37.9521,7 C45.4301,7 52.4611,9.906 57.7571,15.189 C63.0701,20.486 65.9971,27.537 66.0001,35.04 C66.0001,43.54 61.7961,51.589 54.4661,57.123 C54.0911,57.406 53.8701,57.85 53.8701,58.32 L53.8701,65.96 C53.8701,66.788 54.5421,67.46 55.3701,67.46 C56.1981,67.46 56.8701,66.788 56.8701,65.96 L56.8701,59.058 C64.5891,52.968 69.0001,44.255 69.0001,35.039 C68.9971,26.733 65.7571,18.929 59.8761,13.064 C54.0131,7.217 46.2291,4 37.9551,4"></path> <path d="M45.3701 61.46L29.6651 61.46C28.8371 61.46 28.1651 62.132 28.1651 62.96L28.1651 65.803C28.1651 66.631 28.8371 67.303 29.6651 67.303 30.4931 67.303 31.1651 66.631 31.1651 65.803L31.1651 64.46 43.8701 64.46 43.8701 65.96C43.8701 66.788 44.5421 67.46 45.3701 67.46 46.1981 67.46 46.8701 66.788 46.8701 65.96L46.8701 62.96C46.8701 62.132 46.1981 61.46 45.3701 61.46M72.5 29C71.672 29 71 29.672 71 30.5L71 35.5C71 36.328 71.672 37 72.5 37 73.328 37 74 36.328 74 35.5L74 30.5C74 29.672 73.328 29 72.5 29M59.3281 32.8896C59.4081 32.8896 59.4901 32.8836 59.5721 32.8696 60.3901 32.7366 60.9441 31.9656 60.8101 31.1476 59.2091 21.3416 51.5481 13.6556 41.7471 12.0206 40.9301 11.8816 40.1561 12.4356 40.0201 13.2526 39.8841 14.0706 40.4361 14.8426 41.2531 14.9796 49.7861 16.4036 56.4551 23.0946 57.8491 31.6316 57.9701 32.3676 58.6061 32.8896 59.3281 32.8896"></path> </g> </g> </svg> 