<?xml version="1.0" encoding="UTF-8"?> <svg xmlns="http://www.w3.org/2000/svg" width="316" height="464" viewBox="0 0 316 464"> <g fill="none" fill-rule="evenodd" transform="translate(-142 -20)"> <rect width="600" height="484"></rect> <g fill="#8DDCFF" transform="translate(142 20)"> <path d="M41.3830798,332.134853 L85.9312966,287.649922 C93.0054936,293.081131 101.440203,296.266953 110.397168,296.866967 L58.2672867,348.922793 C53.468134,353.71435 45.728469,353.788963 40.9254246,349.120206 C38.8760946,346.855389 37.7467448,343.954029 37.7537498,340.865359 C37.761533,337.564508 39.0504394,334.464957 41.3830798,332.134853 Z M83.610331,221.751041 C100.106932,205.278652 126.948252,205.277875 143.444853,221.751041 C151.92704,230.221178 156.09575,240.227878 155.837346,251.491342 L116.377819,290.894813 L113.405395,293.863014 C102.138361,293.833479 91.5897202,289.468615 83.610331,281.500561 C67.11373,265.027396 67.11373,238.223429 83.610331,221.751041 Z M257.316154,233.030049 C257.684301,232.662424 258.173868,232.460347 258.695346,232.460347 C259.216045,232.460347 259.705612,232.662424 260.07376,233.030826 L284.585553,257.50702 C284.9537,257.875422 285.156843,258.363516 285.156843,258.884253 C285.156843,259.404213 284.9537,259.893084 284.585553,260.260709 L249.539907,295.256568 C246.726262,298.066216 242.985632,299.61366 239.005277,299.61366 C235.0257,299.61366 231.28507,298.066216 228.470646,295.256568 L222.270508,289.065238 C219.456863,286.254813 217.907218,282.519496 217.907218,278.545573 C217.907218,274.57165 219.456863,270.835556 222.270508,268.025908 L257.316154,233.030049 Z M311.545178,295.543362 L292.269178,276.295523 C291.661306,275.688515 290.675168,275.688515 290.068075,276.295523 C289.459425,276.902531 289.459425,277.886491 290.068075,278.493499 L309.344075,297.742116 C313.836567,302.228226 313.836567,309.528649 309.344075,314.014759 L165.75243,457.402417 C163.575454,459.5763 160.681641,460.773218 157.604144,460.773218 C154.525868,460.773218 151.632055,459.5763 149.455858,457.402417 L47.3458286,355.53693 C51.9908729,356.171918 56.8873163,354.697533 60.4683901,351.120769 L114.889661,296.776809 C115.142617,296.636133 115.35043,296.429392 115.491306,296.176796 L118.578922,293.093566 L203.485632,208.307476 C205.661829,206.133593 208.555641,204.936675 211.633917,204.936675 C214.711415,204.936675 217.605228,206.133593 219.781425,208.307476 L248.726558,237.210712 L220.069405,265.827932 C216.667346,269.224381 214.793917,273.74158 214.793917,278.545573 C214.793917,283.349566 216.667346,287.865989 220.069405,291.263215 L226.269543,297.454545 C229.671602,300.851771 234.194449,302.722538 239.005277,302.722538 C243.816883,302.722538 248.33973,300.851771 251.741789,297.454545 L286.786656,262.459463 C287.743218,261.50426 288.270144,260.235061 288.270144,258.884253 C288.270144,257.533446 287.743218,256.263469 286.786656,255.309044 L262.275641,230.832072 C261.31908,229.87687 260.047297,229.351469 258.695346,229.351469 C257.341838,229.351469 256.070833,229.87687 255.114272,230.832072 L250.928439,235.012736 L221.983306,206.108722 C219.218696,203.348039 215.543444,201.827798 211.633917,201.827798 C207.72439,201.827798 204.048361,203.348039 201.284528,206.108722 L158.90239,248.430652 C158.489878,239.45299 155.378912,231.27431 149.623976,224.020521 C149.674567,223.980883 149.727494,223.944354 149.774193,223.897721 L163.892233,209.799737 C166.069208,207.625855 168.963021,206.428937 172.040518,206.428937 C175.118016,206.428937 178.011829,207.625855 180.163898,209.774089 L181.558656,211.231376 C182.152518,211.852374 183.137878,211.874913 183.758981,211.281118 C184.380863,210.688876 184.402656,209.704917 183.808794,209.083918 L182.389907,207.601761 C179.625297,204.841077 175.950045,203.320059 172.040518,203.320059 C168.130991,203.320059 164.45574,204.841077 161.691129,207.601761 L147.624459,221.648448 C146.988567,220.941178 146.334774,220.240903 145.645957,219.552287 C127.935947,201.867436 99.1192374,201.867436 81.4092276,219.552287 C63.6984394,237.237915 63.6984394,266.013687 81.4092276,283.698538 C82.092597,284.381714 82.8000946,285.030692 83.5177103,285.663349 L39.1819764,329.936099 C36.2624788,332.851449 34.6497892,336.730551 34.6404493,340.857587 C34.6318877,344.618551 35.9682719,348.161118 38.4028729,350.964548 C38.4596906,351.050819 38.5266266,351.133205 38.6029025,351.209372 L38.8371783,351.443315 C38.9438089,351.556012 39.0387645,351.676481 39.1492867,351.786846 C39.2045478,351.842029 39.2660355,351.887108 39.3275232,351.932186 L147.254755,459.600394 C150.018587,462.361855 153.694617,463.882096 157.604144,463.882096 C161.513671,463.882096 165.188922,462.361855 167.953533,459.601171 L311.545178,316.212736 C317.251858,310.51494 317.251858,301.241935 311.545178,295.543362 Z"></path> <path d="M240.567064 270.218755C244.303803 270.218755 247.344719 273.254574 247.344719 276.986005 247.344719 280.717435 244.303803 283.753254 240.567064 283.753254 236.830325 283.753254 233.790187 280.717435 233.790187 276.986005 233.790187 273.254574 236.830325 270.218755 240.567064 270.218755M240.567064 286.862132C246.020788 286.862132 250.45802 282.431981 250.45802 276.986005 250.45802 271.540028 246.020788 267.109877 240.567064 267.109877 235.11334 267.109877 230.676887 271.540028 230.676887 276.986005 230.676887 282.431981 235.11334 286.862132 240.567064 286.862132M56.6678286 103.735555L66.737799 113.79122 53.0486167 127.460955 42.9786463 117.40529 56.6678286 103.735555zM156.014804 4.52971256L166.084774 14.5853776 151.322282 29.3268985 141.252311 19.2720107 156.014804 4.52971256zM139.05043 21.4699873L149.121178 31.5256523 68.9389025 111.593244 58.868932 101.537579 139.05043 21.4699873zM51.948065 130.758697C52.2399369 131.050155 52.6361044 131.214148 53.0486167 131.214148 53.4611291 131.214148 53.8572966 131.050155 54.1491685 130.758697L169.387208 15.6843658C169.67908 15.3929085 169.843306 14.9980811 169.843306 14.5853776 169.843306 14.1734513 169.67908 13.7778466 169.387208 13.4863893L157.115356 1.23197052C156.507484.624962144 155.522124.624962144 154.914252 1.23197052L39.6762128 116.306302C39.0683409 116.913311 39.0683409 117.89727 39.6762128 118.504279L51.948065 130.758697zM52.7391547 80.1396395C53.5984256 80.1396395 54.2958049 79.4440281 54.2958049 78.5852007L54.2958049 66.4178305C54.2958049 65.5597802 53.5984256 64.8633916 52.7391547 64.8633916 51.8798837 64.8633916 51.1825044 65.5597802 51.1825044 66.4178305L51.1825044 78.5852007C51.1825044 79.4440281 51.8798837 80.1396395 52.7391547 80.1396395M52.7391547 154.915532C51.8798837 154.915532 51.1825044 155.611921 51.1825044 156.469971L51.1825044 168.637341C51.1825044 169.496169 51.8798837 170.19178 52.7391547 170.19178 53.5984256 170.19178 54.2958049 169.496169 54.2958049 168.637341L54.2958049 156.469971C54.2958049 155.611921 53.5984256 154.915532 52.7391547 154.915532M91.7370571 119.082219L103.921737 119.082219C104.781008 119.082219 105.478387 118.38583 105.478387 117.52778 105.478387 116.66973 104.781008 115.973341 103.921737 115.973341L91.7370571 115.973341C90.8777862 115.973341 90.1804069 116.66973 90.1804069 117.52778 90.1804069 118.38583 90.8777862 119.082219 91.7370571 119.082219M13.7415635 115.973341L1.55688374 115.973341C.696834483 115.973341.000233497536 116.66973.000233497536 117.52778.000233497536 118.38583.696834483 119.082219 1.55688374 119.082219L13.7415635 119.082219C14.6008345 119.082219 15.2982138 118.38583 15.2982138 117.52778 15.2982138 116.66973 14.6008345 115.973341 13.7415635 115.973341M81.415532 143.964977C80.8084384 143.357969 79.8215222 143.357969 79.2144286 143.964977 78.6065567 144.571985 78.6065567 145.555945 79.2144286 146.163731L87.8304877 154.766773C88.1340345 155.070665 88.5325369 155.222223 88.9310394 155.222223 89.3287635 155.222223 89.7280443 155.070665 90.0315911 154.766773 90.6394631 154.159764 90.6394631 153.175804 90.0315911 152.568796L81.415532 143.964977zM17.6483665 80.2883993C17.0412729 79.681391 16.0543567 79.681391 15.4472631 80.2883993 14.8393911 80.8954077 14.8393911 81.8793675 15.4472631 82.4871531L24.0633222 91.090195C24.366869 91.3940878 24.7653714 91.5456456 25.1638739 91.5456456 25.561598 91.5456456 25.9608788 91.3940878 26.2644256 91.090195 26.8722975 90.4831866 26.8722975 89.4992268 26.2644256 88.8922184L17.6483665 80.2883993zM24.0630887 143.964977L15.4470296 152.568796C14.8391576 153.175804 14.8391576 154.159764 15.4470296 154.766773 15.7505764 155.070665 16.1498571 155.222223 16.5475813 155.222223 16.9460837 155.222223 17.3445862 155.070665 17.648133 154.766773L26.2641921 146.163731C26.872064 145.555945 26.872064 144.571985 26.2641921 143.964977 25.6570985 143.357969 24.6701823 143.357969 24.0630887 143.964977M101.827965 240.644545L110.904014 249.707701 105.227689 255.375185 96.1524177 246.312029 101.827965 240.644545zM105.112497 237.364679C106.332132 236.146777 107.954162 235.476036 109.67893 235.476036 111.404477 235.476036 113.026506 236.146777 114.24692 237.364679 115.466556 238.583359 116.13825 240.203085 116.13825 241.925403 116.13825 243.297195 115.712506 244.602924 114.923285 245.693363L113.105117 247.508947 104.029068 238.446569 105.112497 237.364679zM117.28628 247.731232C120.41826 244.629349 125.49294 244.637122 128.61558 247.755326 131.746004 250.880525 131.746004 255.967426 128.61558 259.093403L126.660428 261.045778 115.364595 249.765993 116.448024 248.684103C116.750014 248.382542 117.030211 248.063882 117.28628 247.731232zM118.783777 268.911239L107.487945 257.63223 113.163492 251.963969 124.459324 263.243755 118.783777 268.911239zM117.683226 272.208981C117.986772 272.512096 118.385275 272.664431 118.783777 272.664431 119.181501 272.664431 119.580782 272.512096 119.884329 272.208981L126.660428 265.441731 130.217373 268.992847C130.52092 269.29674 130.919423 269.448297 131.317925 269.448297 131.715649 269.448297 132.11493 269.29674 132.418477 268.992847 133.026349 268.385839 133.026349 267.401879 132.418477 266.79487L128.862309 263.243755 130.817462 261.29138C135.161295 256.952941 135.161295 249.895011 130.817462 245.556572 127.680033 242.424378 123.123718 241.553892 119.197846 242.944338 119.233649 242.608579 119.251551 242.268157 119.251551 241.925403 119.251551 239.372237 118.256073 236.972184 116.448024 235.166703 114.639974 233.361222 112.236506 232.367158 109.67893 232.367158 107.12291 232.367158 104.718664 233.361222 102.911393 235.166703L101.827965 236.247815 99.3731271 233.796465C98.7644768 233.189457 97.7791172 233.189457 97.1720236 233.796465 96.5633734 234.403473 96.5633734 235.38821 97.1720236 235.995219L99.6268611 238.446569 92.8499842 245.213041C92.5581123 245.504498 92.3938857 245.900103 92.3938857 246.312029 92.3938857 246.724733 92.5581123 247.120338 92.8499842 247.411795L117.683226 272.208981zM189.340896 154.299975C178.105772 165.51836 159.82525 165.519914 148.589349 154.299975 137.355004 143.080812 137.355004 124.826259 148.589349 113.607097 159.824472 102.387934 178.104994 102.387157 189.340896 113.607097 200.576019 124.826259 200.576019 143.080812 189.340896 154.299975M146.388245 111.408343C133.939713 123.839968 133.939713 144.067104 146.388245 156.497951 152.612511 162.714152 160.788817 165.821475 168.965122 165.821475 177.141428 165.821475 185.317733 162.714152 191.541999 156.497951 203.990531 144.067104 203.990531 123.839968 191.541999 111.408343 179.092689 98.9767183 158.836777 98.9774955 146.388245 111.408343"></path> <path d="M168.053236,133.701717 L160.909768,140.835037 L157.657148,137.587037 L164.800616,130.453717 L168.053236,133.701717 Z M172.649246,122.616236 L175.901867,125.864236 L170.294813,131.463325 L167.042192,128.214547 L172.649246,122.616236 Z M178.514704,128.473361 C180.071355,130.0278 180.071355,132.55765 178.514704,134.112088 C177.119946,135.504088 174.943749,135.650206 173.385542,134.548886 L172.496695,133.661301 L178.10297,128.062212 L178.514704,128.473361 Z M171.310527,144.047284 C170.350852,145.004819 169.075177,145.532551 167.717778,145.532551 C166.361158,145.532551 165.085483,145.004819 164.125808,144.047284 L163.110872,143.03379 L170.25434,135.899693 L170.666074,136.310842 C170.88167,136.526132 171.108163,136.7251 171.343995,136.907747 C172.281877,137.861395 172.797906,139.121268 172.797906,140.460417 C172.797906,141.81511 172.269424,143.088973 171.310527,144.047284 Z M163.700064,127.155975 L163.687611,127.16841 L154.354714,136.488048 C153.746842,137.095057 153.746842,138.079016 154.354714,138.686802 L158.708665,143.03379 L156.584616,145.154045 C155.976744,145.761053 155.976744,146.74579 156.584616,147.352021 C156.888163,147.655914 157.286665,147.807472 157.685167,147.807472 C158.08367,147.807472 158.482172,147.655914 158.785719,147.352021 L160.909768,145.231767 L161.924704,146.245261 C163.472015,147.790373 165.529906,148.641428 167.717778,148.641428 C169.906429,148.641428 171.96432,147.790373 173.511631,146.245261 C175.058941,144.700149 175.911207,142.645181 175.911207,140.460417 C175.911207,139.750815 175.8217,139.054427 175.647355,138.385241 C175.661365,138.385241 175.676153,138.386018 175.690941,138.386018 C177.510665,138.386018 179.330389,137.694293 180.715808,136.310842 C183.486645,133.543941 183.486645,129.041509 180.715808,126.274608 L180.304852,125.864236 L181.665365,124.504879 C182.274015,123.897871 182.274015,122.913911 181.665365,122.306903 C181.057493,121.699894 180.071355,121.699894 179.464261,122.306903 L178.10297,123.665482 L173.749798,119.318494 C173.141926,118.711485 172.155788,118.711485 171.548695,119.318494 L163.711739,127.143539 L163.700064,127.155975 Z"></path> </g> </g> </svg> 