<?xml version="1.0" encoding="UTF-8"?> <svg xmlns="http://www.w3.org/2000/svg" width="20" height="32" viewBox="0 0 20 32"> <path fill="#0D2E52" fill-rule="evenodd" d="M99.5925781,774.977322 L90,766 L80.4074219,774.977322 C79.8916121,775.460048 79.8647928,776.269522 80.3475191,776.785331 C80.3668712,776.80601 80.3869048,776.82604 80.4075866,776.845388 L80.4075866,776.845388 C80.96934,777.370926 81.8423721,777.370849 82.4040328,776.845212 L88.5884687,771.057438 L88.5884687,796.588469 C88.5884687,797.368036 89.2204328,798 90,798 L90,798 C90.7795672,798 91.4115312,797.368036 91.4115312,796.588469 L91.4115312,771.057438 L97.5959672,776.845212 C98.1576279,777.370849 99.03066,777.370926 99.5924134,776.845388 L99.5924134,776.845388 C100.108308,776.362753 100.13527,775.553284 99.6526351,775.03739 C99.6332866,775.016708 99.6132565,774.996674 99.5925781,774.977322 Z" transform="rotate(-180 50 399)"></path> </svg> 